<svg width="42" height="40" viewBox="0 0 42 40" fill="none" xmlns="http://www.w3.org/2000/svg">
<g filter="url(#filter0_ddi_6486_2729)">
<rect x="7.10156" y="1" width="27.54" height="34.68" rx="1.9584" fill="url(#paint0_linear_6486_2729)"/>
</g>
<g filter="url(#filter1_d_6486_2729)">
<g clip-path="url(#clip0_6486_2729)">
<path d="M2.13815 9.73692C2.0898 9.39283 2.06562 9.22079 2.11411 9.07995C2.15677 8.95607 2.23754 8.84887 2.34487 8.77372C2.46688 8.68829 2.63893 8.66411 2.98301 8.61575L21.1764 6.05883C21.5205 6.01048 21.6926 5.9863 21.8334 6.03479C21.9573 6.07745 22.0645 6.15823 22.1396 6.26555C22.2251 6.38756 22.2492 6.55961 22.2976 6.90369L25.3531 28.6445C25.4014 28.9886 25.4256 29.1606 25.3771 29.3015C25.3345 29.4254 25.2537 29.5326 25.1464 29.6077C25.0243 29.6931 24.8523 29.7173 24.5082 29.7657L6.31479 32.3226C5.97071 32.371 5.79866 32.3951 5.65783 32.3466C5.53395 32.304 5.42675 32.2232 5.3516 32.1159C5.26616 31.9939 5.24198 31.8218 5.19363 31.4777L2.13815 9.73692Z" fill="#FDFDFD"/>
<rect opacity="0.1" x="5.98438" y="20.293" width="7.56138" height="0.232658" rx="0.0775527" transform="rotate(-8 5.98438 20.293)" fill="#727272"/>
<rect opacity="0.1" x="6.07031" y="20.9062" width="15.7044" height="0.232658" rx="0.0775527" transform="rotate(-8 6.07031 20.9062)" fill="#727272"/>
<rect opacity="0.1" x="6.15625" y="21.5234" width="15.7044" height="0.232658" rx="0.0775527" transform="rotate(-8 6.15625 21.5234)" fill="#727272"/>
<rect opacity="0.1" x="6.24219" y="22.1367" width="15.7044" height="0.232658" rx="0.0775527" transform="rotate(-8 6.24219 22.1367)" fill="#727272"/>
<rect opacity="0.1" x="5.42188" y="16.375" width="7.56138" height="0.232658" rx="0.0775527" transform="rotate(-8 5.42188 16.375)" fill="#727272"/>
<rect opacity="0.1" x="5.50781" y="16.9883" width="15.7044" height="0.232658" rx="0.0775527" transform="rotate(-8 5.50781 16.9883)" fill="#727272"/>
<rect opacity="0.1" x="5.59375" y="17.6055" width="15.7044" height="0.232658" rx="0.0775527" transform="rotate(-8 5.59375 17.6055)" fill="#727272"/>
<rect opacity="0.1" x="5.67969" y="18.2188" width="15.7044" height="0.232658" rx="0.0775527" transform="rotate(-8 5.67969 18.2188)" fill="#727272"/>
<path opacity="0.1" d="M4.81036 10.7887C4.80945 10.7493 4.83814 10.7155 4.8771 10.7101L12.211 9.67933C12.2567 9.67292 12.2978 9.70754 12.2993 9.75364L12.3268 10.6071C12.328 10.6452 12.3014 10.6785 12.2639 10.6857L4.93119 12.096C4.88408 12.1051 4.84012 12.0696 4.83901 12.0217L4.81036 10.7887Z" fill="#727272"/>
<rect opacity="0.1" x="4.89844" y="12.4961" width="15.7044" height="0.232658" rx="0.0775527" transform="rotate(-8 4.89844 12.4961)" fill="#727272"/>
<rect opacity="0.1" x="4.98438" y="13.1133" width="15.7044" height="0.232658" rx="0.0775527" transform="rotate(-8 4.98438 13.1133)" fill="#727272"/>
<rect opacity="0.1" x="5.07031" y="13.7266" width="15.7044" height="0.232658" rx="0.0775527" transform="rotate(-8 5.07031 13.7266)" fill="#727272"/>
<rect opacity="0.1" x="6.51562" y="24.2148" width="3.72253" height="0.232658" rx="0.0775527" transform="rotate(-8 6.51562 24.2148)" fill="#727272"/>
<rect x="6.67188" y="25.3281" width="3.72253" height="4.14907" rx="0.465316" transform="rotate(-8 6.67188 25.3281)" fill="#E2E2E2" fill-opacity="0.5"/>
<rect x="10.8203" y="24.7461" width="3.72253" height="4.14907" rx="0.465316" transform="rotate(-8 10.8203 24.7461)" fill="#E2E2E2" fill-opacity="0.5"/>
<rect x="14.9688" y="24.1641" width="3.72253" height="4.14907" rx="0.465316" transform="rotate(-8 14.9688 24.1641)" fill="#E2E2E2" fill-opacity="0.5"/>
</g>
</g>
<g filter="url(#filter2_d_6486_2729)">
<g clip-path="url(#clip1_6486_2729)">
<path d="M19.7837 6.47911C19.8321 6.13502 19.8563 5.96298 19.9417 5.84096C20.0168 5.73364 20.124 5.65286 20.2479 5.6102C20.3888 5.56171 20.5608 5.58589 20.9049 5.63425L39.0983 8.19117C39.4424 8.23952 39.6144 8.2637 39.7365 8.34914C39.8438 8.42429 39.9246 8.53149 39.9672 8.65537C40.0157 8.7962 39.9915 8.96825 39.9432 9.31233L36.8877 31.0531C36.8393 31.3972 36.8152 31.5693 36.7297 31.6913C36.6546 31.7986 36.5474 31.8794 36.4235 31.922C36.2827 31.9705 36.1106 31.9464 35.7665 31.898L17.5731 29.3411C17.229 29.2927 17.057 29.2685 16.935 29.1831C16.8276 29.108 16.7469 29.0008 16.7042 28.8769C16.6557 28.736 16.6799 28.564 16.7282 28.2199L19.7837 6.47911Z" fill="#FDFDFD"/>
<rect opacity="0.1" x="20.5625" y="17.6875" width="7.56138" height="0.232658" rx="0.0775527" transform="rotate(8 20.5625 17.6875)" fill="#727272"/>
<rect opacity="0.1" x="20.4766" y="18.3008" width="15.7044" height="0.232658" rx="0.0775527" transform="rotate(8 20.4766 18.3008)" fill="#727272"/>
<rect opacity="0.1" x="20.3906" y="18.918" width="15.7044" height="0.232658" rx="0.0775527" transform="rotate(8 20.3906 18.918)" fill="#727272"/>
<rect opacity="0.1" x="20.3047" y="19.5312" width="15.7044" height="0.232658" rx="0.0775527" transform="rotate(8 20.3047 19.5312)" fill="#727272"/>
<rect opacity="0.1" x="21.1172" y="13.7695" width="7.56138" height="0.232658" rx="0.0775527" transform="rotate(8 21.1172 13.7695)" fill="#727272"/>
<rect opacity="0.1" x="21.0312" y="14.3828" width="15.7044" height="0.232658" rx="0.0775527" transform="rotate(8 21.0312 14.3828)" fill="#727272"/>
<rect opacity="0.1" x="20.9453" y="15" width="15.7044" height="0.232658" rx="0.0775527" transform="rotate(8 20.9453 15)" fill="#727272"/>
<rect opacity="0.1" x="20.8594" y="15.6133" width="15.7044" height="0.232658" rx="0.0775527" transform="rotate(8 20.8594 15.6133)" fill="#727272"/>
<rect opacity="0.1" x="20.0078" y="21.6016" width="3.72253" height="0.232658" rx="0.0775527" transform="rotate(8 20.0078 21.6016)" fill="#727272"/>
<rect x="19.8516" y="22.7148" width="3.72253" height="4.14907" rx="0.465316" transform="rotate(8 19.8516 22.7148)" fill="#E2E2E2" fill-opacity="0.5"/>
<rect x="24" y="23.2969" width="3.72253" height="4.14907" rx="0.465316" transform="rotate(8 24 23.2969)" fill="#E2E2E2" fill-opacity="0.5"/>
<rect x="28.1484" y="23.8789" width="3.72253" height="4.14907" rx="0.465316" transform="rotate(8 28.1484 23.8789)" fill="#E2E2E2" fill-opacity="0.5"/>
<circle cx="22.1043" cy="8.30574" r="0.232658" transform="rotate(8 22.1043 8.30574)" fill="#00A656"/>
<path d="M22.6976 8.38207L22.7897 8.39501L22.8948 8.80825L22.9007 8.80908L23.1156 8.44082L23.2077 8.45375L23.137 8.95643L23.0649 8.94629L23.116 8.58253L23.1113 8.58188L22.9121 8.92406L22.8522 8.91564L22.755 8.53155L22.7503 8.53089L22.6992 8.89489L22.627 8.88475L22.6976 8.38207ZM23.2679 9.119C23.257 9.11746 23.2471 9.11515 23.2384 9.11209C23.2296 9.10919 23.2231 9.10644 23.219 9.10386L23.2451 9.04621C23.258 9.05169 23.2698 9.05493 23.2803 9.05591C23.2908 9.05689 23.3006 9.05426 23.3097 9.04803C23.3189 9.04181 23.3278 9.0308 23.3364 9.01498L23.349 8.99122L23.2647 8.58992L23.3432 8.60096L23.3976 8.90695L23.4015 8.9075L23.5381 8.62835L23.6169 8.63942L23.4015 9.04491C23.3915 9.06353 23.38 9.07885 23.367 9.09087C23.3539 9.10305 23.3392 9.1115 23.3229 9.11621C23.3065 9.12092 23.2882 9.12185 23.2679 9.119ZM23.8217 9.05265L23.8924 8.54998L23.9657 8.56029L23.9395 8.74708L23.9439 8.7477C23.9493 8.74044 23.9567 8.73222 23.9661 8.72304C23.9756 8.71386 23.988 8.70642 24.0033 8.70073C24.0187 8.69488 24.038 8.6936 24.0614 8.69689C24.0919 8.70116 24.1179 8.71267 24.1397 8.73141C24.1614 8.75015 24.177 8.77495 24.1865 8.80583C24.1962 8.83672 24.1982 8.87254 24.1925 8.91328C24.1867 8.95403 24.175 8.98801 24.1574 9.01523C24.1397 9.04228 24.1179 9.062 24.092 9.07437C24.0661 9.08658 24.0379 9.09055 24.0075 9.08627C23.9846 9.08305 23.9664 9.07657 23.9529 9.06683C23.9396 9.05712 23.9295 9.04653 23.9228 9.03507C23.9161 9.02362 23.9111 9.01357 23.9078 9.00493L23.9016 9.00407L23.8934 9.06273L23.8217 9.05265ZM23.9201 8.87426C23.9164 8.90077 23.917 8.92454 23.9219 8.94559C23.9267 8.96663 23.9357 8.98382 23.9486 8.99716C23.9616 9.01033 23.9787 9.0184 23.9998 9.02137C24.0217 9.02445 24.0409 9.02122 24.0572 9.01167C24.0736 9.00196 24.087 8.98757 24.0973 8.9685C24.1079 8.94945 24.1149 8.92733 24.1184 8.90213C24.1219 8.87726 24.1213 8.85439 24.1166 8.83354C24.112 8.8127 24.1031 8.79551 24.0898 8.78196C24.0767 8.76844 24.0591 8.76013 24.037 8.75702C24.0157 8.75403 23.9969 8.75698 23.9807 8.76588C23.9645 8.77479 23.9514 8.78854 23.9411 8.80712C23.9308 8.8257 23.9238 8.84808 23.9201 8.87426ZM24.2485 9.11263L24.3015 8.73563L24.3724 8.7456L24.364 8.80548L24.3679 8.80604C24.3776 8.78671 24.392 8.77246 24.411 8.76328C24.4301 8.75396 24.4508 8.75085 24.4728 8.75395C24.4774 8.7546 24.4828 8.75552 24.489 8.75672C24.4953 8.75795 24.5002 8.75906 24.5038 8.76005L24.4939 8.83025C24.4911 8.82902 24.486 8.82738 24.4786 8.82534C24.4712 8.82314 24.4638 8.82151 24.4562 8.82045C24.4389 8.81802 24.4229 8.81952 24.4083 8.82498C24.3939 8.83029 24.3818 8.83886 24.3721 8.85068C24.3625 8.86234 24.3565 8.87635 24.3542 8.89272L24.3219 9.12295L24.2485 9.11263ZM24.5137 9.14991L24.5667 8.77291L24.6401 8.78322L24.5871 9.16023L24.5137 9.14991ZM24.612 8.71994C24.5992 8.71815 24.5888 8.71236 24.5809 8.70256C24.5731 8.69262 24.57 8.68168 24.5717 8.66974C24.5734 8.65763 24.5794 8.64795 24.5896 8.64071C24.5999 8.63332 24.6115 8.63053 24.6243 8.63232C24.637 8.63411 24.6473 8.63998 24.6551 8.64992C24.6631 8.65971 24.6662 8.67067 24.6645 8.68277C24.6628 8.69472 24.6568 8.70438 24.6464 8.71177C24.6362 8.71901 24.6247 8.72174 24.612 8.71994ZM24.8473 9.20455C24.8101 9.19933 24.7793 9.1869 24.7547 9.16725C24.7302 9.14747 24.7128 9.12207 24.7023 9.09106C24.692 9.05991 24.6896 9.02478 24.6951 8.98568C24.7005 8.94706 24.7125 8.91403 24.731 8.8866C24.7497 8.8592 24.7733 8.83906 24.8016 8.82619C24.8301 8.81334 24.8619 8.80938 24.8969 8.8143C24.9181 8.81729 24.9383 8.8237 24.9572 8.83355C24.9762 8.84339 24.9926 8.85695 25.0063 8.87424C25.0201 8.89152 25.0299 8.91283 25.0357 8.93818C25.0415 8.96335 25.042 8.99304 25.0371 9.02724L25.0335 9.05326L24.7338 9.01114L24.7415 8.95616L24.9693 8.98817C24.972 8.96886 24.9705 8.95121 24.9647 8.93522C24.959 8.91906 24.9496 8.90564 24.9366 8.89497C24.9237 8.88432 24.9078 8.87766 24.8888 8.87499C24.8682 8.8721 24.8495 8.87464 24.8327 8.88262C24.8161 8.89047 24.8025 8.9019 24.7918 8.91693C24.7814 8.93181 24.7749 8.94867 24.7722 8.96748L24.7662 9.01044C24.7626 9.03564 24.7641 9.05769 24.7704 9.07661C24.7769 9.09554 24.7875 9.1108 24.8023 9.12238C24.817 9.1338 24.8351 9.14101 24.8565 9.14403C24.8705 9.14598 24.8834 9.1458 24.8954 9.14348C24.9074 9.141 24.9182 9.13634 24.9277 9.12949C24.9371 9.12265 24.9449 9.11365 24.951 9.10249L25.0187 9.12477C25.0102 9.14444 24.9977 9.16095 24.9812 9.17431C24.9648 9.18753 24.9452 9.19687 24.9224 9.20235C24.8998 9.20768 24.8748 9.20841 24.8473 9.20455ZM25.3239 8.87933L25.3157 8.93823L25.1026 8.90829L25.1109 8.84938L25.3239 8.87933ZM25.1163 9.2346L25.1754 8.8139C25.1788 8.79034 25.1867 8.77151 25.1992 8.75741C25.2117 8.74315 25.227 8.73338 25.2451 8.72808C25.2632 8.72261 25.2822 8.72129 25.3022 8.72409C25.3169 8.72616 25.3294 8.72916 25.3395 8.73308C25.3496 8.73685 25.3571 8.74007 25.3619 8.74274L25.3364 8.79973C25.3331 8.79826 25.3288 8.7965 25.3236 8.79443C25.3184 8.7922 25.312 8.79054 25.3043 8.78946C25.2864 8.78695 25.2731 8.78958 25.2641 8.79733C25.2554 8.80511 25.2498 8.81735 25.2475 8.83404L25.1897 9.24492L25.1163 9.2346ZM25.6551 9.01972L25.5869 9.02216C25.5853 9.01326 25.582 9.00454 25.577 8.99599C25.5722 8.98747 25.5651 8.98005 25.5557 8.97371C25.5462 8.96738 25.5339 8.96314 25.5186 8.961C25.4979 8.95808 25.4799 8.96031 25.4646 8.96768C25.4494 8.97489 25.4408 8.98578 25.4388 9.00034C25.437 9.01294 25.4402 9.02374 25.4485 9.03274C25.4567 9.04174 25.4709 9.05016 25.491 9.05799L25.549 9.08015C25.5825 9.09304 25.6066 9.10903 25.6213 9.12811C25.636 9.14719 25.6414 9.17007 25.6377 9.19674C25.6345 9.21932 25.6251 9.23853 25.6096 9.25436C25.5942 9.27006 25.5742 9.28126 25.5495 9.28798C25.5251 9.29471 25.4976 9.29595 25.4672 9.29167C25.4249 9.28573 25.3918 9.27189 25.3676 9.25015C25.3435 9.22823 25.3308 9.20016 25.3294 9.16593L25.4019 9.1651C25.4037 9.18421 25.4108 9.19948 25.4232 9.2109C25.4356 9.22216 25.4529 9.22934 25.475 9.23245C25.499 9.23583 25.519 9.23354 25.5348 9.22558C25.5506 9.21746 25.5595 9.20612 25.5616 9.19155C25.5632 9.17977 25.5602 9.16925 25.5525 9.15999C25.545 9.15075 25.5325 9.14283 25.515 9.13621L25.4532 9.11325C25.4191 9.10028 25.3949 9.08386 25.3805 9.06399C25.3663 9.04413 25.3611 9.02079 25.3648 8.99395C25.368 8.9717 25.3769 8.9531 25.3917 8.93816C25.4065 8.92321 25.4255 8.91262 25.4487 8.90637C25.472 8.89997 25.4978 8.89875 25.5261 8.90273C25.5668 8.90845 25.5977 8.9218 25.6186 8.94276C25.6395 8.96356 25.6517 8.98921 25.6551 9.01972Z" fill="#A8A8A8"/>
<path d="M27.1599 8.98224L26.9134 9.56131L26.8478 9.5521L27.0944 8.97303L27.1599 8.98224Z" fill="#A8A8A8"/>
<path d="M22.1056 8.59725L22.1606 8.60497L22.127 8.84375C22.1234 8.86916 22.1143 8.89083 22.0996 8.90877C22.0849 8.92659 22.066 8.9396 22.0428 8.94779C22.0196 8.95586 21.9935 8.95785 21.9644 8.95376C21.9355 8.94969 21.9109 8.94058 21.8909 8.92644C21.8708 8.91217 21.8562 8.89445 21.847 8.87327C21.8378 8.85198 21.835 8.82862 21.8386 8.80322L21.8722 8.56444L21.9269 8.57213L21.894 8.80648C21.8917 8.82291 21.8932 8.83801 21.8987 8.85179C21.9042 8.86558 21.9131 8.87708 21.9254 8.88628C21.9378 8.89537 21.9531 8.9012 21.9714 8.90377C21.9899 8.90636 22.0063 8.90499 22.0206 8.89966C22.0351 8.89423 22.0468 8.88563 22.0557 8.87386C22.0647 8.86211 22.0704 8.84802 22.0727 8.83159L22.1056 8.59725ZM22.2783 8.62152L22.3452 8.77572L22.3481 8.77612L22.4549 8.64633L22.5183 8.65525L22.3797 8.82088L22.468 9.0184L22.4042 9.00943L22.3367 8.85713L22.3338 8.85673L22.2269 8.98451L22.1631 8.97554L22.3044 8.81029L22.2149 8.6126L22.2783 8.62152ZM22.7091 8.6647L22.531 9.08292L22.4837 9.07627L22.6618 8.65805L22.7091 8.6647ZM22.9894 8.72146L23.0444 8.72918L23.0108 8.96796C23.0073 8.99337 22.9981 9.01504 22.9834 9.03298C22.9688 9.05081 22.9498 9.06381 22.9266 9.072C22.9034 9.08007 22.8773 9.08206 22.8482 9.07797C22.8193 9.0739 22.7948 9.0648 22.7747 9.05065C22.7546 9.03638 22.74 9.01866 22.7308 8.99748C22.7216 8.97619 22.7188 8.95284 22.7224 8.92743L22.756 8.68865L22.8107 8.69635L22.7778 8.93069C22.7755 8.94712 22.7771 8.96222 22.7825 8.976C22.788 8.98979 22.7969 9.00129 22.8093 9.01049C22.8216 9.01958 22.8369 9.02541 22.8552 9.02798C22.8737 9.03058 22.8901 9.0292 22.9045 9.02387C22.919 9.01844 22.9306 9.00984 22.9395 8.99807C22.9485 8.98632 22.9542 8.97223 22.9565 8.95581L22.9894 8.72146ZM23.1788 8.74807L23.1278 9.11112L23.073 9.10342L23.124 8.74037L23.1788 8.74807ZM23.4572 9.15741L23.3397 9.14089L23.3907 8.77785L23.5119 8.79489C23.5475 8.79989 23.577 8.81145 23.6005 8.82958C23.624 8.84758 23.6407 8.87107 23.6504 8.90004C23.6604 8.92891 23.6627 8.9622 23.6574 8.9999C23.6521 9.03772 23.6406 9.06924 23.6229 9.09448C23.6054 9.11973 23.5826 9.13786 23.5546 9.14886C23.5265 9.15974 23.4941 9.16259 23.4572 9.15741ZM23.4012 9.10073L23.4609 9.10913C23.4886 9.11301 23.5123 9.11104 23.532 9.10322C23.5518 9.09527 23.5677 9.08202 23.5796 9.06344C23.5915 9.04475 23.5995 9.02104 23.6035 8.99232C23.6075 8.96384 23.6063 8.93904 23.6 8.9179C23.5938 8.89679 23.5825 8.87983 23.5661 8.86704C23.5497 8.85426 23.5283 8.846 23.5018 8.84228L23.4387 8.83341L23.4012 9.10073ZM23.8122 9.21292C23.7854 9.20914 23.7631 9.20017 23.7453 9.18598C23.7277 9.17169 23.7151 9.15335 23.7075 9.13095C23.7001 9.10845 23.6983 9.08308 23.7023 9.05484C23.7062 9.02695 23.7149 9.0031 23.7283 8.98329C23.7418 8.96349 23.7588 8.94895 23.7792 8.93965C23.7998 8.93038 23.8228 8.92751 23.848 8.93107C23.8634 8.93323 23.8779 8.93786 23.8916 8.94497C23.9054 8.95208 23.9172 8.96187 23.9271 8.97436C23.937 8.98684 23.9441 9.00223 23.9483 9.02053C23.9525 9.03872 23.9528 9.06016 23.9494 9.08486L23.9467 9.10365L23.7303 9.07323L23.7359 9.03352L23.9004 9.05664C23.9023 9.0427 23.9012 9.02995 23.8971 9.0184C23.8929 9.00673 23.8861 8.99704 23.8767 8.98933C23.8675 8.98164 23.856 8.97683 23.8422 8.9749C23.8274 8.97281 23.8138 8.97465 23.8017 8.98041C23.7897 8.98608 23.7799 8.99434 23.7722 9.00519C23.7647 9.01594 23.7599 9.02811 23.758 9.0417L23.7537 9.07272C23.7511 9.09092 23.7521 9.10685 23.7567 9.12051C23.7614 9.13419 23.7691 9.14521 23.7797 9.15357C23.7904 9.16182 23.8034 9.16703 23.8189 9.1692C23.829 9.17062 23.8383 9.17049 23.847 9.16881C23.8557 9.16702 23.8634 9.16365 23.8703 9.15871C23.8771 9.15376 23.8827 9.14726 23.8871 9.1392L23.936 9.15529C23.9299 9.1695 23.9209 9.18143 23.9089 9.19108C23.8971 9.20062 23.883 9.20737 23.8665 9.21132C23.8502 9.21517 23.8321 9.21571 23.8122 9.21292ZM24.2216 9.05497L24.1724 9.05673C24.1712 9.0503 24.1688 9.044 24.1653 9.03783C24.1618 9.03168 24.1566 9.02632 24.1498 9.02174C24.143 9.01717 24.1341 9.01411 24.1231 9.01256C24.1081 9.01045 24.0951 9.01206 24.0841 9.01738C24.0731 9.02259 24.0669 9.03045 24.0654 9.04097C24.0641 9.05007 24.0664 9.05787 24.0724 9.06437C24.0784 9.07087 24.0886 9.07695 24.1031 9.08261L24.145 9.09861C24.1692 9.10792 24.1866 9.11947 24.1972 9.13325C24.2078 9.14703 24.2118 9.16356 24.209 9.18282C24.2068 9.19913 24.2 9.213 24.1887 9.22443C24.1776 9.23577 24.1632 9.24386 24.1454 9.24871C24.1277 9.25358 24.1079 9.25446 24.0859 9.25138C24.0554 9.24709 24.0314 9.23709 24.014 9.22139C23.9966 9.20556 23.9874 9.18529 23.9864 9.16056L24.0387 9.15997C24.04 9.17377 24.0452 9.18479 24.0541 9.19304C24.0631 9.20117 24.0756 9.20636 24.0915 9.2086C24.1089 9.21105 24.1233 9.20939 24.1347 9.20364C24.1461 9.19778 24.1526 9.18959 24.1541 9.17907C24.1553 9.17056 24.1531 9.16296 24.1475 9.15628C24.1421 9.1496 24.1331 9.14388 24.1205 9.1391L24.0758 9.12251C24.0512 9.11315 24.0337 9.10129 24.0233 9.08694C24.013 9.0726 24.0093 9.05574 24.012 9.03636C24.0142 9.02029 24.0207 9.00685 24.0314 8.99606C24.0421 8.98527 24.0558 8.97762 24.0726 8.97311C24.0894 8.96848 24.108 8.9676 24.1284 8.97047C24.1579 8.97461 24.1801 8.98425 24.1952 8.99939C24.2104 9.01441 24.2191 9.03293 24.2216 9.05497ZM24.2563 9.26972L24.2945 8.99743L24.3475 9.00488L24.3093 9.27716L24.2563 9.26972ZM24.3272 8.95918C24.318 8.95789 24.3105 8.9537 24.3047 8.94663C24.2991 8.93945 24.2969 8.93155 24.2981 8.92292C24.2994 8.91417 24.3037 8.90719 24.311 8.90195C24.3185 8.89662 24.3269 8.8946 24.3361 8.8959C24.3453 8.89719 24.3527 8.90143 24.3584 8.90861C24.3641 8.91568 24.3664 8.92359 24.3651 8.93234C24.3639 8.94096 24.3596 8.94794 24.3521 8.95328C24.3447 8.95851 24.3364 8.96048 24.3272 8.95918ZM24.4796 9.41101C24.458 9.40797 24.4397 9.40252 24.4249 9.39465C24.4103 9.3868 24.3987 9.37752 24.3902 9.36681C24.3817 9.35609 24.3758 9.34484 24.3725 9.33305L24.4207 9.32066C24.4232 9.32631 24.4266 9.33241 24.4311 9.33894C24.4358 9.34562 24.4424 9.35167 24.451 9.3571C24.4598 9.36255 24.4715 9.3663 24.4861 9.36836C24.5062 9.37119 24.5235 9.36862 24.538 9.36065C24.5525 9.3528 24.5612 9.33824 24.5642 9.31697L24.5717 9.26344L24.5684 9.26296C24.5644 9.26831 24.5588 9.2741 24.5518 9.28034C24.5449 9.2866 24.5359 9.2916 24.5248 9.29534C24.5136 9.29908 24.4997 9.29978 24.4831 9.29743C24.4616 9.29441 24.4429 9.28666 24.427 9.27419C24.4113 9.26162 24.3999 9.24476 24.3926 9.22362C24.3854 9.20237 24.3839 9.17727 24.388 9.14831C24.392 9.11936 24.4004 9.09523 24.4132 9.07593C24.426 9.05664 24.4418 9.04271 24.4606 9.03415C24.4794 9.02547 24.4998 9.02266 24.5216 9.02573C24.5385 9.02811 24.5518 9.03286 24.5614 9.04C24.571 9.04701 24.5782 9.05465 24.5829 9.06291C24.5878 9.07118 24.5914 9.07838 24.5938 9.0845L24.5977 9.08505L24.6039 9.04091L24.6558 9.04821L24.6167 9.32652C24.6134 9.34992 24.6053 9.36836 24.5923 9.38184C24.5793 9.39532 24.5631 9.40436 24.5435 9.40897C24.5241 9.41358 24.5027 9.41426 24.4796 9.41101ZM24.501 9.25512C24.5162 9.25726 24.5296 9.25552 24.5411 9.24991C24.5527 9.2442 24.5622 9.23504 24.5695 9.22245C24.577 9.20976 24.582 9.19402 24.5847 9.17523C24.5872 9.15691 24.5868 9.1404 24.5833 9.12569C24.5798 9.11098 24.5734 9.09899 24.564 9.08971C24.5546 9.08031 24.5421 9.07453 24.5266 9.07235C24.5107 9.07011 24.4968 9.07238 24.485 9.07916C24.4732 9.08582 24.4636 9.09579 24.4562 9.10909C24.4489 9.12241 24.4441 9.13775 24.4416 9.15513C24.4391 9.17297 24.4396 9.18901 24.4432 9.20325C24.4467 9.21748 24.4533 9.22913 24.4628 9.23819C24.4725 9.24727 24.4852 9.25291 24.501 9.25512ZM24.7644 9.17627L24.7417 9.33793L24.6887 9.33049L24.7269 9.0582L24.7778 9.06535L24.7716 9.10967L24.7749 9.11014C24.7832 9.09661 24.7947 9.0864 24.8093 9.07953C24.824 9.07268 24.8415 9.07069 24.862 9.07357C24.8805 9.07617 24.8962 9.08236 24.9091 9.09212C24.9219 9.10176 24.9311 9.11474 24.9367 9.13107C24.9422 9.14739 24.9434 9.16678 24.9403 9.18923L24.9159 9.36242L24.8629 9.35498L24.8864 9.18817C24.8891 9.16843 24.8862 9.15229 24.8774 9.13973C24.8687 9.12706 24.8554 9.11946 24.8374 9.11694C24.8252 9.11521 24.8138 9.11633 24.8035 9.12031C24.7933 9.12429 24.7847 9.13104 24.7777 9.14054C24.7709 9.14994 24.7664 9.16185 24.7644 9.17627Z" fill="#727272"/>
</g>
</g>
<g filter="url(#filter3_d_6486_2729)">
<rect x="10.9062" y="4.0625" width="20.3576" height="23.9398" rx="0.620421" fill="#FDFDFD"/>
<rect opacity="0.1" x="13.2266" y="16.0391" width="7.56138" height="0.232658" rx="0.0775527" fill="#727272"/>
<rect opacity="0.1" x="13.2266" y="16.6602" width="15.7044" height="0.232658" rx="0.0775527" fill="#727272"/>
<rect opacity="0.1" x="13.2266" y="17.2812" width="15.7044" height="0.232658" rx="0.0775527" fill="#727272"/>
<rect opacity="0.1" x="13.2266" y="17.8984" width="15.7044" height="0.232658" rx="0.0775527" fill="#727272"/>
<rect opacity="0.1" x="13.2266" y="12.082" width="7.56138" height="0.232658" rx="0.0775527" fill="#727272"/>
<rect opacity="0.1" x="13.2266" y="12.7031" width="15.7044" height="0.232658" rx="0.0775527" fill="#727272"/>
<rect opacity="0.1" x="13.2266" y="13.3242" width="15.7044" height="0.232658" rx="0.0775527" fill="#727272"/>
<rect opacity="0.1" x="13.2266" y="13.9414" width="15.7044" height="0.232658" rx="0.0775527" fill="#727272"/>
<rect opacity="0.1" x="13.2266" y="6.38281" width="8.22058" height="0.581645" rx="0.0775527" fill="#727272"/>
<rect opacity="0.1" x="13.2266" y="7.35156" width="8.22058" height="0.581645" rx="0.0775527" fill="#727272"/>
<rect opacity="0.1" x="13.2266" y="8.32031" width="15.7044" height="0.232658" rx="0.0775527" fill="#727272"/>
<rect opacity="0.1" x="13.2266" y="8.94141" width="15.7044" height="0.232658" rx="0.0775527" fill="#727272"/>
<rect opacity="0.1" x="13.2266" y="9.5625" width="15.7044" height="0.232658" rx="0.0775527" fill="#727272"/>
<rect opacity="0.1" x="13.2422" y="20" width="3.72253" height="0.232658" rx="0.0775527" fill="#727272"/>
<rect x="13.2422" y="21.125" width="3.72253" height="4.14907" rx="0.465316" fill="#E2E2E2" fill-opacity="0.5"/>
<rect x="17.4297" y="21.125" width="3.72253" height="4.14907" rx="0.465316" fill="#E2E2E2" fill-opacity="0.5"/>
<rect x="21.6172" y="21.125" width="3.72253" height="4.14907" rx="0.465316" fill="#E2E2E2" fill-opacity="0.5"/>
</g>
<defs>
<filter id="filter0_ddi_6486_2729" x="5.14316" y="0.3472" width="31.4559" height="39.2493" filterUnits="userSpaceOnUse" color-interpolation-filters="sRGB">
<feFlood flood-opacity="0" result="BackgroundImageFix"/>
<feColorMatrix in="SourceAlpha" type="matrix" values="0 0 0 0 0 0 0 0 0 0 0 0 0 0 0 0 0 0 127 0" result="hardAlpha"/>
<feMorphology radius="0.6528" operator="dilate" in="SourceAlpha" result="effect1_dropShadow_6486_2729"/>
<feOffset/>
<feComposite in2="hardAlpha" operator="out"/>
<feColorMatrix type="matrix" values="0 0 0 0 0.832182 0 0 0 0 0.832182 0 0 0 0 0.832182 0 0 0 1 0"/>
<feBlend mode="normal" in2="BackgroundImageFix" result="effect1_dropShadow_6486_2729"/>
<feColorMatrix in="SourceAlpha" type="matrix" values="0 0 0 0 0 0 0 0 0 0 0 0 0 0 0 0 0 0 127 0" result="hardAlpha"/>
<feMorphology radius="0.6528" operator="erode" in="SourceAlpha" result="effect2_dropShadow_6486_2729"/>
<feOffset dy="1.9584"/>
<feGaussianBlur stdDeviation="1.3056"/>
<feComposite in2="hardAlpha" operator="out"/>
<feColorMatrix type="matrix" values="0 0 0 0 0 0 0 0 0 0 0 0 0 0 0 0 0 0 0.15 0"/>
<feBlend mode="multiply" in2="effect1_dropShadow_6486_2729" result="effect2_dropShadow_6486_2729"/>
<feBlend mode="normal" in="SourceGraphic" in2="effect2_dropShadow_6486_2729" result="shape"/>
<feColorMatrix in="SourceAlpha" type="matrix" values="0 0 0 0 0 0 0 0 0 0 0 0 0 0 0 0 0 0 127 0" result="hardAlpha"/>
<feOffset dy="0.6528"/>
<feComposite in2="hardAlpha" operator="arithmetic" k2="-1" k3="1"/>
<feColorMatrix type="matrix" values="0 0 0 0 1 0 0 0 0 1 0 0 0 0 1 0 0 0 0.33 0"/>
<feBlend mode="normal" in2="shape" result="effect3_innerShadow_6486_2729"/>
</filter>
<filter id="filter1_d_6486_2729" x="0.138736" y="4.99124" width="27.2147" height="30.2616" filterUnits="userSpaceOnUse" color-interpolation-filters="sRGB">
<feFlood flood-opacity="0" result="BackgroundImageFix"/>
<feColorMatrix in="SourceAlpha" type="matrix" values="0 0 0 0 0 0 0 0 0 0 0 0 0 0 0 0 0 0 127 0" result="hardAlpha"/>
<feOffset dy="0.930632"/>
<feGaussianBlur stdDeviation="0.930632"/>
<feComposite in2="hardAlpha" operator="out"/>
<feColorMatrix type="matrix" values="0 0 0 0 0 0 0 0 0 0 0 0 0 0 0 0 0 0 0.15 0"/>
<feBlend mode="multiply" in2="BackgroundImageFix" result="effect1_dropShadow_6486_2729"/>
<feBlend mode="normal" in="SourceGraphic" in2="effect1_dropShadow_6486_2729" result="shape"/>
</filter>
<filter id="filter2_d_6486_2729" x="14.7325" y="4.56546" width="27.2069" height="30.2616" filterUnits="userSpaceOnUse" color-interpolation-filters="sRGB">
<feFlood flood-opacity="0" result="BackgroundImageFix"/>
<feColorMatrix in="SourceAlpha" type="matrix" values="0 0 0 0 0 0 0 0 0 0 0 0 0 0 0 0 0 0 127 0" result="hardAlpha"/>
<feOffset dy="0.930632"/>
<feGaussianBlur stdDeviation="0.930632"/>
<feComposite in2="hardAlpha" operator="out"/>
<feColorMatrix type="matrix" values="0 0 0 0 0 0 0 0 0 0 0 0 0 0 0 0 0 0 0.15 0"/>
<feBlend mode="multiply" in2="BackgroundImageFix" result="effect1_dropShadow_6486_2729"/>
<feBlend mode="normal" in="SourceGraphic" in2="effect1_dropShadow_6486_2729" result="shape"/>
</filter>
<filter id="filter3_d_6486_2729" x="9.04499" y="3.13187" width="24.0819" height="27.6639" filterUnits="userSpaceOnUse" color-interpolation-filters="sRGB">
<feFlood flood-opacity="0" result="BackgroundImageFix"/>
<feColorMatrix in="SourceAlpha" type="matrix" values="0 0 0 0 0 0 0 0 0 0 0 0 0 0 0 0 0 0 127 0" result="hardAlpha"/>
<feOffset dy="0.930632"/>
<feGaussianBlur stdDeviation="0.930632"/>
<feComposite in2="hardAlpha" operator="out"/>
<feColorMatrix type="matrix" values="0 0 0 0 0 0 0 0 0 0 0 0 0 0 0 0 0 0 0.15 0"/>
<feBlend mode="multiply" in2="BackgroundImageFix" result="effect1_dropShadow_6486_2729"/>
<feBlend mode="normal" in="SourceGraphic" in2="effect1_dropShadow_6486_2729" result="shape"/>
</filter>
<linearGradient id="paint0_linear_6486_2729" x1="20.8716" y1="1" x2="20.8716" y2="35.68" gradientUnits="userSpaceOnUse">
<stop stop-color="#E5E5E5"/>
<stop offset="1" stop-color="#E2E2E2"/>
</linearGradient>
<clipPath id="clip0_6486_2729">
<path d="M2.13815 9.73692C2.0898 9.39283 2.06562 9.22079 2.11411 9.07995C2.15677 8.95607 2.23754 8.84887 2.34487 8.77372C2.46688 8.68829 2.63893 8.66411 2.98301 8.61575L21.1764 6.05883C21.5205 6.01048 21.6926 5.9863 21.8334 6.03479C21.9573 6.07745 22.0645 6.15823 22.1396 6.26555C22.2251 6.38756 22.2492 6.55961 22.2976 6.90369L25.3531 28.6445C25.4014 28.9886 25.4256 29.1606 25.3771 29.3015C25.3345 29.4254 25.2537 29.5326 25.1464 29.6077C25.0243 29.6931 24.8523 29.7173 24.5082 29.7657L6.31479 32.3226C5.97071 32.371 5.79866 32.3951 5.65783 32.3466C5.53395 32.304 5.42675 32.2232 5.3516 32.1159C5.26616 31.9939 5.24198 31.8218 5.19363 31.4777L2.13815 9.73692Z" fill="white"/>
</clipPath>
<clipPath id="clip1_6486_2729">
<path d="M19.7837 6.47911C19.8321 6.13502 19.8563 5.96298 19.9417 5.84096C20.0168 5.73364 20.124 5.65286 20.2479 5.6102C20.3888 5.56171 20.5608 5.58589 20.9049 5.63425L39.0983 8.19117C39.4424 8.23952 39.6144 8.2637 39.7365 8.34914C39.8438 8.42429 39.9246 8.53149 39.9672 8.65537C40.0157 8.7962 39.9915 8.96825 39.9432 9.31233L36.8877 31.0531C36.8393 31.3972 36.8152 31.5693 36.7297 31.6913C36.6546 31.7986 36.5474 31.8794 36.4235 31.922C36.2827 31.9705 36.1106 31.9464 35.7665 31.898L17.5731 29.3411C17.229 29.2927 17.057 29.2685 16.935 29.1831C16.8276 29.108 16.7469 29.0008 16.7042 28.8769C16.6557 28.736 16.6799 28.564 16.7282 28.2199L19.7837 6.47911Z" fill="white"/>
</clipPath>
</defs>
</svg>
