<svg width="142" height="30" viewBox="0 0 142 30" fill="none" xmlns="http://www.w3.org/2000/svg">
<path d="M13.1803 23.5519C14.2068 24.5778 15.8709 24.577 16.8971 23.5509L20.1598 20.2882C21.7805 22.6901 21.5291 25.978 19.404 28.1037C16.9919 30.5156 13.0807 30.5157 10.6686 28.1037C8.54284 25.9775 8.2917 22.6874 9.91375 20.2853L13.1803 23.5519ZM1.93426 10.634C4.06066 8.50782 7.3514 8.25661 9.75359 9.87907L6.48992 13.1427C5.46349 14.1692 5.46351 15.8341 6.48992 16.8605L9.75261 20.1232C7.35035 21.7454 4.05952 21.4954 1.93328 19.3693C-0.478299 16.9572 -0.477545 13.0459 1.93426 10.634ZM20.322 9.87809C22.7239 8.25753 26.0127 8.50875 28.1384 10.634C30.5502 13.0461 30.5504 16.9573 28.1384 19.3693C26.0128 21.4947 22.7239 21.7464 20.322 20.1261L23.5876 16.8605C24.6139 15.8341 24.6138 14.1701 23.5876 13.1437L20.322 9.87809ZM20.2448 9.79802C20.2281 9.82384 18.2859 12.84 18.2858 15.0021C18.286 17.1736 20.2448 20.2062 20.2448 20.2062C20.2448 20.2062 17.2122 18.2472 15.0407 18.2472C12.879 18.2475 9.86447 20.1889 9.83758 20.2062C9.83758 20.2062 11.7964 17.1736 11.7966 15.0021C11.7966 12.8387 9.85216 9.82062 9.83758 9.79802C9.86753 9.81733 12.88 11.7567 15.0407 11.757C17.2014 11.7569 20.2151 9.81717 20.2448 9.79802ZM10.6677 1.8986C13.0796 -0.51328 16.9908 -0.512872 19.403 1.8986C21.5287 4.02425 21.7806 7.31385 20.1598 9.71599L16.8971 6.45329C15.8708 5.42695 14.2068 5.42609 13.1803 6.45231L9.9157 9.71696C8.29308 7.31482 8.54163 4.02501 10.6677 1.8986Z" fill="#204336"/>
<path d="M125.118 23.764H122.258V2.23828H125.118V23.764Z" fill="#204336"/>
<path d="M116.149 18.0443C118.333 18.9668 120.055 20.9041 120.731 23.764H117.41C116.826 20.8426 114.858 19.1206 112.306 19.0283V16.8757C115.073 16.8757 116.857 15.3689 116.857 13.3086C116.857 11.5558 115.534 10.6333 113.843 10.6333C111.291 10.6333 109.446 12.8781 109.446 16.2915V23.764H106.586V2.23828H109.446V11.3098C110.399 9.2495 112.336 7.98872 114.735 7.98872C117.81 7.98872 119.87 10.0183 119.87 12.9704C119.87 15.3997 118.456 17.214 116.149 18.0443Z" fill="#204336"/>
<path d="M101.246 7.98828C103.552 7.98828 104.998 9.77184 104.998 12.0782C104.998 13.0622 104.721 14.0155 104.352 14.815H101.338C101.8 14.077 101.984 13.3697 101.984 12.7239C101.984 11.4631 101.277 10.6329 100.17 10.6329C98.3555 10.6329 97.1255 12.8777 97.1255 16.2603V23.7635H94.2656V8.38804H97.1255V11.0019C97.9865 9.09532 99.401 7.98828 101.246 7.98828Z" fill="#204336"/>
<path d="M91.8208 23.7622H88.9609V8.38672H91.8208V23.7622Z" fill="#204336"/>
<path d="M83.8217 16.3205V8.38672H86.6815V23.7622H83.8217V20.8409C82.7147 23.0242 80.9311 24.1312 78.7478 24.1312C74.5041 24.1312 73.7969 20.0106 73.7969 17.2738V8.38672H76.6567V17.243C76.6567 19.3341 77.1487 21.5174 79.6703 21.5174C82.1611 21.5174 83.8217 19.3341 83.8217 16.3205Z" fill="#204336"/>
<path d="M69.004 10.8481V8.38804H71.8639V29.9137H69.004V21.3035C67.8662 23.1178 66.0212 24.1633 63.7148 24.1633C59.625 24.1633 56.7344 20.9344 56.7344 16.0758C56.7344 11.2479 59.625 7.98828 63.7148 7.98828C66.0519 7.98828 67.8662 9.03381 69.004 10.8481ZM64.4221 21.611C67.2205 21.611 69.0655 19.3661 69.0655 16.0758C69.0655 12.7854 67.2205 10.5406 64.4221 10.5406C61.6238 10.5406 59.748 12.7854 59.748 16.0758C59.748 19.3661 61.6238 21.611 64.4221 21.611Z" fill="#204336"/>
<path d="M38.2489 16.9651C37.9106 21.547 41.447 24.6221 46.9207 24.6221C51.7178 24.6221 55.1927 22.285 55.1927 18.1029C55.1927 13.6166 51.1898 12.8486 47.5584 12.1519C44.5438 11.5736 41.7852 11.0443 41.7852 8.47782C41.7852 6.2945 43.7225 5.03371 46.5209 5.03371C49.9035 5.03371 52.0253 6.87877 51.4103 9.83086H54.4546C55.1619 5.43348 51.9023 2.29688 46.5824 2.29688C41.8467 2.29688 38.6794 4.7262 38.6794 8.75458C38.6794 13.2972 42.6835 14.0289 46.3104 14.6917C49.3125 15.2403 52.0561 15.7417 52.0561 18.3181C52.0561 20.5322 50.0573 21.8852 46.9514 21.8852C43.2613 21.8852 41.078 20.0094 41.2932 16.9651H38.2489Z" fill="#204336"/>
<path d="M138.771 19.0279H141.877C140.985 22.1952 138.372 24.1633 134.712 24.1633C130.038 24.1633 127.086 20.9344 127.086 16.0758C127.086 11.2171 130.069 7.98828 134.835 7.98828C140.094 7.98828 142.615 11.9244 141.262 16.9983H130.13C130.438 19.8889 132.068 21.611 134.712 21.611C136.68 21.611 138.187 20.6269 138.771 19.0279ZM134.743 10.4791C132.191 10.4791 130.592 12.0167 130.192 14.6612H138.648C138.894 12.0782 137.48 10.4791 134.743 10.4791Z" fill="#204336"/>
<path d="M88.5 4.16022C88.5 5.22467 89.3279 6.08215 90.4219 6.08215C91.516 6.08215 92.3439 5.22467 92.3439 4.16022C92.3439 3.06619 91.516 2.23828 90.4219 2.23828C89.3279 2.23828 88.5 3.06619 88.5 4.16022Z" fill="#204336"/>
</svg>
